<svg width="30" height="30" viewBox="0 0 30 30" fill="none" xmlns="http://www.w3.org/2000/svg">
<path d="M15.5322 9.67993C17.6743 7.52512 19.9437 7.31841 21.6406 8.06958C23.3789 8.83916 24.6348 10.658 24.6348 12.8079C24.6347 15.0096 23.704 16.7106 22.3633 18.1721C20.9969 19.6616 19.273 20.8361 17.7002 22.0354L17.6992 22.0364C17.1539 22.4535 16.6651 22.8212 16.1934 23.0881C15.722 23.3548 15.3349 23.4807 15 23.4807C14.6653 23.4807 14.2782 23.3549 13.8066 23.0881C13.3347 22.8211 12.8456 22.4538 12.2998 22.0374C10.7271 20.8367 9.00352 19.662 7.63672 18.1721C6.29573 16.7104 5.36527 15.0092 5.36523 12.8069C5.36523 10.6566 6.62033 8.83787 8.3584 8.0686C10.0553 7.31766 12.3255 7.52482 14.4678 9.67993L15 10.2151L15.5322 9.67993Z" stroke="#767676" stroke-width="1.5"/>
</svg>
